<?xml version="1.0" encoding="UTF-8"?>
<svg id="Layer_1" xmlns="http://www.w3.org/2000/svg" viewBox="0 0 680 447.49">
  <defs>
    <style>
      .cls-1 {
        fill: #d4ffff;
      }

      .cls-2 {
        fill: #fff;
      }

      .cls-3 {
        fill: #27aab1;
      }
    </style>
  </defs>
  <text/>
  <path class="cls-3" d="M325.33,88.09c93.69,0,161.59,64.24,161.59,159.7s-67.9,158.51-161.59,158.51-161.07-67.84-161.07-158.51,68.43-159.7,161.07-159.7ZM325.33,328.25c52.64,0,87.9-33.62,87.9-80.45s-35.26-82.25-87.9-82.25-87.38,34.22-87.38,82.25,37.37,80.45,87.38,80.45Z"/>
  <path class="cls-1" d="M97.2,180.1h43.2l97.75,221.1h-43.2l-22.98-52.12h-106.06l-22.98,52.12H0l97.2-221.1ZM153.96,308.65l-35.17-79.6-35.17,79.6h70.34Z"/>
  <path class="cls-1" d="M467.56,231.25l52.15,149.2,51.25-149.2h46.48l-74.5,216.23h-46.48l-75.09-216.23h46.19Z"/>
  <path class="cls-2" d="M638.28,401.2v-169.95h41.72v169.95h-41.72ZM659.14,158.18c11.32,0,19.07,9.18,19.07,21.75,0,13.6-7.75,22.09-19.07,22.09-11.92,0-19.66-8.5-19.66-22.09,0-12.58,7.75-21.75,19.66-21.75Z"/>
</svg>